<svg width="108" height="40" fill="none" xmlns="http://www.w3.org/2000/svg"><path d="M0 37.11h19.583v2.776H0V37.11zm0-2.525h19.583v-2.777H0v2.777zm5.595-5.301h8.393v-2.777H5.595v2.777zm0-5.302h8.393v-2.777H5.595v2.777zm0-5.301h8.393v-2.777H5.595v2.777zm8.393-8.078H5.595v2.777h8.393v-2.777zM0 8.078h19.583V5.301H0v2.777zm0-5.301h19.583V0H0v2.777zm22.38 31.808h29.85c.5-.858.882-1.79 1.127-2.777H22.38v2.777zm27.513-13.38H27.975v2.777h24.252a10.736 10.736 0 00-2.334-2.777zm-21.918-5.3v2.776h21.918a10.736 10.736 0 002.334-2.777H27.975zM52.23 5.3H22.38v2.777h30.974A10.497 10.497 0 0052.23 5.3zM42.98 0h-20.6v2.777h27.805A10.685 10.685 0 0042.98 0zM27.975 13.38h8.393v-2.777h-8.393v2.777zm16.277 0h9.036c.242-.887.374-1.816.374-2.777h-9.41v2.777zM27.975 29.284h8.393v-2.777h-8.393v2.777zm16.277-2.777v2.777h9.41c0-.962-.133-1.891-.374-2.777h-9.036zM22.38 39.887h20.6c2.798 0 5.305-1.053 7.205-2.778H22.38v2.777zm55.946 0l.976-2.778h-1.945l.969 2.777zm-1.86-5.302h3.732l.981-2.777h-5.697l.985 2.777zm-1.876-5.301h7.48l.981-2.777h-9.445l.984 2.777zm-1.874-5.302h11.23l.982-2.777H71.734l.982 2.777zM61.546 13.38H76.66l-.974-2.777h-14.14v2.777zm20.312-5.302h18.853V5.301H82.832l-.974 2.777zM84.688 0l-.97 2.777h16.993V0H84.689zM55.952 39.886h13.987V37.11H55.951v2.777zm0-5.301h13.987v-2.777H55.951v2.777zm5.595-5.301h8.392v-2.777h-8.392v2.777zm0-5.302h8.392v-2.777h-8.392v2.777zm33.57-13.38H80.973L80 13.38h15.117v-2.777zm-8.392 8.079h8.392v-2.777h-16l-.785 2.244-.786-2.244h-16v2.777h8.393v-2.552l.903 2.552h14.98l.903-2.552v2.552zm8.392 2.524h-8.392v2.777h8.392v-2.777zm-8.392 8.079h8.392v-2.777h-8.392v2.777zm0 5.301h13.987v-2.777H86.724v2.777zm0 5.301h13.987V37.11H86.724v2.777zM74.803 8.078l-.975-2.777H55.951v2.777h18.852zm-1.857-5.301L71.973 0H55.95v2.777h16.996zm30.778 35.037c0-1.24.951-2.184 2.136-2.184s2.136.944 2.136 2.184c0 1.242-.951 2.184-2.136 2.184-1.185.002-2.136-.942-2.136-2.184zm3.771.139v-.276c0-.89-.704-1.59-1.635-1.59s-1.635.7-1.635 1.59v.276c0 .89.704 1.59 1.635 1.59s1.635-.7 1.635-1.59zm-1.955.987h-.545v-2.217h1.015c.501 0 .758.298.758.7 0 .35-.16.573-.407.669l.501.848h-.597l-.418-.763h-.31v.763h.003zm.407-1.167c.17 0 .267-.073.267-.232v-.159c0-.159-.097-.232-.267-.232h-.407v.626h.407v-.003z" fill="#000"/></svg>