<?xml version="1.0" standalone="no"?>
<!DOCTYPE svg PUBLIC "-//W3C//DTD SVG 20010904//EN"
 "http://www.w3.org/TR/2001/REC-SVG-20010904/DTD/svg10.dtd">
<svg version="1.0" xmlns="http://www.w3.org/2000/svg"
 width="1520.000000pt" height="1520.000000pt" viewBox="0 0 1520.000000 1520.000000"
 preserveAspectRatio="xMidYMid meet">
<metadata>
Created by potrace 1.11, written by Peter Selinger 2001-2013
</metadata>
<g transform="translate(0.000000,1520.000000) scale(0.100000,-0.100000)"
fill="#000000" stroke="none">
<path d="M0 7596 l0 -4945 28 9 c15 5 65 20 112 35 47 14 92 29 100 32 8 4 17
7 20 7 3 1 19 6 35 12 55 21 200 67 215 68 8 1 26 7 40 13 29 14 493 164 500
163 3 -1 23 6 44 15 22 9 47 18 55 20 9 2 49 15 88 28 40 14 73 23 73 20 0 -3
7 0 15 7 8 6 19 9 25 5 5 -3 10 -1 10 4 0 6 3 10 8 9 4 -2 21 2 37 9 17 6 111
37 210 69 99 31 209 67 245 79 70 25 482 159 490 160 3 0 19 5 35 11 46 17
128 44 150 49 11 3 74 23 140 46 66 22 127 42 135 44 8 2 51 16 95 30 44 15
85 28 90 29 6 1 16 5 22 9 7 5 22 10 33 13 11 2 29 6 39 8 11 3 28 9 38 14 10
6 21 10 26 10 10 1 166 50 192 61 25 11 247 81 257 82 4 0 23 6 43 15 19 8 35
11 35 7 0 -5 4 -3 8 4 4 6 21 13 37 15 17 2 33 6 36 11 3 4 16 10 30 12 13 3
35 9 49 14 29 10 59 20 63 20 1 0 35 12 74 26 40 14 77 25 82 25 5 0 22 5 38
12 15 6 33 12 38 13 6 2 64 21 130 43 179 60 348 114 367 117 9 2 26 9 38 15
11 6 25 8 30 5 6 -3 10 -2 10 4 0 5 15 13 33 17 17 4 35 9 40 10 4 1 9 3 12 4
3 1 10 4 15 5 6 1 12 4 15 5 3 1 10 4 15 5 6 1 12 4 15 5 3 1 8 3 13 4 55 15
160 51 171 60 8 6 15 9 15 7 1 -2 46 9 96 24 3 1 18 7 33 13 16 7 32 12 37 12
4 0 104 32 221 71 118 39 221 72 229 74 8 2 42 13 75 25 33 12 67 23 75 25 8
2 15 4 15 6 0 1 9 3 20 5 11 1 58 16 105 32 156 54 405 135 420 136 8 1 17 3
20 6 6 6 116 42 145 47 10 2 22 8 26 14 3 6 9 10 13 10 3 -1 7 -1 9 0 1 0 11
2 22 4 11 1 70 19 130 40 61 20 115 38 120 39 19 4 90 27 110 36 11 5 101 34
200 65 99 31 192 61 207 67 15 5 31 10 35 10 4 0 16 4 26 10 10 5 31 12 45 14
15 3 29 9 30 15 2 5 7 7 11 4 5 -2 59 13 122 34 137 46 310 103 324 106 6 1
17 5 25 8 41 16 198 67 215 70 11 1 25 5 30 8 18 11 120 43 128 41 4 -1 21 5
37 13 16 8 37 17 47 18 10 2 25 7 33 10 8 3 58 19 110 36 52 17 144 47 204 67
60 20 114 37 120 38 6 1 36 11 66 21 30 11 57 19 60 20 3 0 10 3 15 6 6 4 26
10 45 14 19 4 41 12 48 17 6 6 12 8 12 4 0 -3 21 3 48 13 26 10 50 19 55 20 4
0 9 2 12 2 3 1 10 3 15 4 6 1 12 4 15 5 3 1 8 3 13 5 4 1 14 4 22 8 8 3 60 20
115 38 122 38 275 88 295 96 8 3 20 7 27 9 26 5 90 27 120 40 17 8 37 14 45
14 7 1 31 8 53 16 22 8 51 17 65 20 13 3 29 9 35 13 5 5 17 8 25 9 8 0 39 9
68 20 29 11 56 21 60 21 4 1 90 29 192 62 102 34 190 62 195 64 6 1 17 5 25 8
8 3 60 20 115 37 55 17 107 33 115 37 8 3 20 7 25 9 6 1 33 10 60 19 28 10 55
19 60 20 6 1 17 5 25 8 8 3 33 11 55 17 22 6 49 15 60 20 11 5 101 34 200 65
99 31 189 60 200 65 11 5 38 14 60 20 22 6 47 14 55 17 8 4 17 7 20 8 3 0 46
14 95 30 50 16 95 30 100 31 6 2 43 14 83 28 41 14 78 26 82 26 5 0 21 5 37
12 15 6 30 12 33 13 3 0 37 11 75 24 39 13 78 24 87 26 9 2 26 9 37 15 12 6
21 8 21 5 0 -3 14 1 30 10 17 9 30 13 30 9 0 -4 6 -2 13 3 6 6 35 16 62 23 28
7 56 17 63 23 6 5 12 7 12 4 0 -5 109 29 160 50 8 3 20 7 26 8 12 3 509 163
534 173 8 3 18 6 23 7 4 2 9 4 12 5 3 1 10 4 15 5 6 1 12 4 15 5 3 1 8 3 13 4
4 2 27 9 52 16 25 7 47 14 50 14 3 1 10 4 15 7 6 4 22 9 37 13 15 3 40 11 55
18 15 6 33 12 38 13 6 0 17 4 25 7 24 11 434 143 445 144 6 0 24 7 40 13 17 7
37 14 45 16 8 2 16 4 18 5 2 3 2 3 47 15 17 4 35 10 40 14 6 3 13 6 18 7 4 1
9 3 12 4 3 1 8 3 13 4 4 1 23 6 42 10 19 5 41 12 50 17 19 10 432 144 445 144
6 0 12 2 15 5 4 5 106 39 135 46 6 1 29 9 53 18 23 8 42 12 42 9 0 -4 5 -2 12
5 7 7 20 12 30 12 10 0 18 3 18 8 0 4 -3409 7 -7575 7 -4165 0 -7571 3 -7567
6 4 3 27 12 52 19 25 7 50 16 55 19 6 3 15 6 20 7 16 3 218 69 335 109 58 19
114 37 125 40 20 4 105 31 135 43 8 3 18 6 22 6 3 1 10 4 14 9 4 4 17 7 29 7
12 0 25 3 29 7 3 4 16 8 28 10 12 2 27 8 35 14 7 6 13 9 13 5 0 -4 14 0 30 9
17 9 30 13 30 10 0 -3 15 1 34 9 19 8 37 12 40 8 3 -3 6 0 6 7 0 7 4 10 10 6
5 -3 17 -1 27 4 10 6 140 49 288 96 149 47 278 91 288 96 10 5 22 7 27 4 6 -4
10 -1 10 4 0 6 3 10 8 9 7 -3 180 50 197 61 6 3 18 7 27 8 19 3 132 40 163 53
28 12 177 60 201 64 11 2 37 11 57 20 20 8 37 12 37 9 0 -3 7 0 15 7 8 7 15 9
15 5 0 -4 7 -2 15 5 8 6 19 9 25 5 5 -3 10 -1 10 6 0 7 3 10 6 6 4 -3 19 0 35
9 16 8 31 14 34 14 3 0 6 0 8 1 1 0 9 2 18 4 9 1 45 13 80 25 65 22 80 27 89
28 3 1 38 13 78 26 39 14 72 22 72 19 0 -3 6 -1 13 5 9 8 175 65 222 77 6 1
17 5 25 8 44 17 337 110 348 110 6 0 12 3 12 7 0 4 6 7 13 8 14 1 51 10 55 12
1 2 7 4 12 5 6 1 12 4 15 5 3 1 8 3 13 5 4 1 14 4 22 8 25 9 124 41 137 43 11
2 44 13 123 42 8 3 20 6 26 7 6 2 51 16 100 32 49 17 121 40 159 52 39 12 77
25 85 28 8 3 21 8 28 10 6 1 18 5 25 6 6 2 20 7 30 10 9 4 25 10 35 14 9 3 22
7 28 8 14 4 295 94 314 102 8 3 20 7 27 9 24 5 179 57 210 70 17 8 40 14 50
14 11 0 23 3 27 8 4 4 11 7 14 8 4 0 54 15 112 34 58 19 107 35 110 35 3 1 12
4 20 8 23 8 149 49 163 51 7 2 23 7 37 13 28 12 290 95 305 97 6 0 12 4 15 8
3 4 15 9 25 11 11 2 54 14 95 27 41 14 78 23 83 22 4 -1 7 2 7 6 0 5 6 9 13 9
6 0 55 15 107 32 52 18 102 34 110 36 8 2 92 29 185 60 94 31 177 58 185 60 8
2 92 29 185 60 94 31 178 57 188 58 9 1 17 5 17 9 0 4 6 8 13 8 6 0 131 39
277 86 145 48 269 87 275 88 5 1 15 4 20 8 6 3 30 12 55 19 25 7 47 13 50 14
3 1 19 7 35 14 17 7 38 13 48 14 9 1 17 5 17 9 0 4 3 7 8 6 10 -3 73 13 92 22
13 7 266 90 295 97 6 1 44 14 85 28 41 15 80 28 85 29 6 1 37 11 70 22 33 10
65 19 70 19 6 0 12 3 15 6 3 3 39 15 80 28 41 12 82 25 90 28 8 4 18 7 22 7 3
1 10 4 14 9 4 4 20 7 35 7 15 0 29 4 31 8 2 4 30 16 63 25 72 21 76 22 95 30
26 10 514 169 530 172 8 2 16 4 18 5 1 2 5 3 10 4 9 2 143 46 162 53 8 3 20 7
25 8 10 3 188 61 384 126 63 21 118 36 122 33 5 -3 9 -1 9 4 0 8 55 25 63 19
2 -1 15 6 30 16 15 9 27 15 27 12 0 -3 23 4 52 15 28 11 54 18 56 15 3 -2 19
3 36 12 17 9 40 18 51 19 11 1 52 14 90 27 111 40 597 198 625 203 13 3 30 10
37 16 7 6 13 7 13 3 0 -4 7 -2 15 5 8 6 19 9 25 5 5 -3 10 -1 10 5 0 6 4 9 9
6 5 -3 22 1 37 9 16 8 36 15 45 15 8 0 20 5 27 12 7 7 12 9 12 5 0 -3 19 1 43
9 23 9 47 17 52 18 12 3 145 45 165 53 8 4 17 7 20 7 3 1 11 5 18 9 6 5 12 6
12 3 0 -3 26 4 58 15 61 22 86 30 89 30 2 0 69 23 150 51 82 27 155 51 163 52
9 1 21 5 28 10 6 4 12 5 12 2 0 -3 20 3 44 14 24 10 47 16 50 13 3 -4 6 -2 6
4 0 5 6 10 13 10 6 0 111 32 232 72 121 40 228 73 238 74 9 1 17 5 17 9 0 4 3
7 8 6 4 0 14 1 22 5 38 14 157 51 170 52 9 0 21 4 28 9 6 4 20 9 29 11 10 2
32 9 48 16 17 6 39 14 50 16 11 1 29 7 40 12 11 5 135 46 275 91 140 45 262
84 270 88 8 3 17 6 20 7 11 2 86 27 100 32 8 3 20 7 25 8 13 3 212 68 465 152
107 35 203 65 213 66 9 1 17 5 17 10 0 4 6 7 13 6 6 -1 19 1 27 4 31 13 170
58 188 62 10 2 36 11 58 20 21 9 41 16 44 16 11 0 170 52 170 55 0 2 -3415 4
-7590 4 l-7590 0 0 -4944z"/>
</g>
</svg>
