<svg width="76" height="84" fill="none" xmlns="http://www.w3.org/2000/svg"><path d="M9.659 73.162c-.123-.392-.481-1.27-.579-1.92-.215-1.438.536-2.385 1.227-2.602.774-.216 1.077.173 1.377 1.078.387 1.377.43 3.181.3 5.765-.17 3.529-1.935 7.79-6.323 7.702-3.789-.083-5.465-2.537-5.64-6.28-.081-1.765.045-3.53.776-6.024.387-1.336.733-1.812 1.936-2.068.945-.172.86.816.646 1.982-.471 2.58-.69 3.827-.516 6.754.169 3.1 1.592 4.305 3.141 4.305 2.324.044 3.356-1.892 3.789-4.692.34-2.237.083-3.313-.134-4zm49.55 3.056c.905 0 1.165 1.07.948 1.718-.216.645-.989 1.38-2.193 1.594-.26-.647-.39-3.312 1.245-3.312zm-16.822 1.458c0-.728-.39-1.331-.86-1.331-.39 0-1.291.428-1.291 1.806 0 1.08.383 1.591.56 1.811 1.244-.39 1.591-1.425 1.591-2.286zM29.001 68.9c-.06-.69-.602-1.16-1.334-1.16-.817 0-1.586.857-1.504 1.933.052.71.47 1.294 1.293 1.294.943 0 1.631-1.075 1.545-2.067zm6.998 2.528c-.074-1.204-.366-1.747-1.012-1.702-.857.051-1.253 2.748-1.078 5.582.111 1.85.387 2.134.644 2.116.474-.028 1.61-3.332 1.446-5.996zm28.547 4.53c-.533 2.212-2.15 5.467-4.563 5.467-.558 0-1.548-.217-1.548-.776 0-.603 3.79-.686 3.79-3.571 0-1.075-.99-2.583-2.455-2.583-1.936 0-3.825 2.11-3.825 5.036 0 2.623 1.63 3.485 3.265 3.485 2.841 0 4.563-2.326 5.466-4.26.432 1.29.686 4.26 1.766 4.26.429 0 .732-.216 1.249-1.376 1.287-2.885 2.537-6.199 4.26-6.199.643 0 .257 1.165 1.806 1.165.73 0 1.244-.603 1.244-1.294 0-.991-.902-1.763-2.278-1.763-4.046 0-4.903 6.068-5.55 6.068-1.076 0-.732-4.863-1.508-4.863-.689-.001-1.027.82-1.119 1.204zM30.121 81.12c.645 0 1.754-.209 2.627-1.607-.5-1.109-.855-3.349-.905-4.165-.257-4.171 1.35-8.096 3.11-8.204 1.29-.079 2.322 1.142 2.44 3.12.317 5.199-1.414 7.368-2.28 9.24.146.726 1.377 1.962 2.539 1.962.429 0 .947-.215 1.078-.39a4.269 4.269 0 01-.174-1.247c0-3.012 1.937-5.552 3.616-5.552 1.333 0 2.108 1.764 2.108 2.928 0 1.375-1.163 2.496-2.883 3.572.303.3.859.517 1.334.517 2.456 0 3.74-2.97 4.69-5.683.172-.517.476-1.247 1.077-1.247 1.032 0 1.465 6.8 3.181 6.8.735 0 1.336-1.508 1.336-2.667 0-.862-.302-.948-.302-2.196 0-1.376.733-2.537 1.725-2.537.601 0 .82.6.82 1.33 0 2.755-1.983 7.877-4.906 7.877-2.198 0-2.026-3.788-2.8-3.788-.865 0-2.07 3.83-6.326 3.83-.692 0-1.422-.344-2.023-1.034-1.031.69-1.894.992-2.884.992-1.59 0-2.281-1.636-2.925-1.636-.776 0-1.634 1.678-4.219 1.678-2.065 0-2.41-2.751-3.14-2.751-.647 0-1.636 2.751-2.711 2.751-1.81 0-2.194-4.775-3.79-4.775-1.246 0-5.19 4.85-6.26 4.739-.43-.045-.611-.366-.566-.797.06-.596.573-2.19.78-2.943.349-1.309.668-2.743.847-3.2.177-.462.654-.791 1.038-.756.193.018.25.379.31.677.218 1.064.522 2.149.864 2.149.605 0 2.6-3.831 3.762-3.831 1.423 0 1.593 6.026 3.529 6.026.647 0 1.122-.773 1.55-1.723.044-1.594.474-3.87 1.765-3.87.905 0 1.335 2.02.688 3.787-.002 2.108 1.374 2.624 2.28 2.624zm29.974-67.484c-.32 0-.777 0-1.029-.501-.206-.412-.136-1.075-.525-1.371.389.114.8.114 1.119.114 1.03 0 2.012-.708 2.767-.708.497 0 .657.32.657.639 0 1.006-2.028 1.827-2.989 1.827zm.502 2.58c2.373 0 4.545-1.895 4.545-3.56 0-.778-.366-1.417-1.303-1.531.16.205.228.365.228.73 0 1.257-1.914 2.65-3.994 2.65-.755 0-.983.524-.983.798 0 .64.617.914 1.507.914zm-.182.96c.298 2.169 3.584 5.092 4.474 5.023.596-.05.824-2.831.824-5.023 0-1.256.069-2.238-.594-2.467-1.052 2.125-3.812 2.558-4.704 2.467zM9.017 31.54c.775 0 .615-4.751 1.871-4.751.298 0 .39.297.39.662 0 1.073-.527 2.65-.527 3.516 0 .435.115.572.32.572.55 0 1.508-5.23 2.444-5.23.297 0 .433.297.433.594 0 1.096-1.391 4.247-1.391 5.137 0 .138.044.251.16.251.57 0 1.712-2.465 2.076-3.698.206-.64.48-.983.732-.983.228 0 .434.252.434.777 0 1.233-1.143 4.133-2.147 6.075-.776 1.507-1.986 3.675-1.986 4.885 0 .617.112 1.256 1.003 2.032-1.461-.09-2.055-.227-2.602-1.369-2.444 4.864 4.498 4.385 2.123 8.699-.434-.775-3.858-1.575-3.858-6.096 0-3.905 3.424-6.188 3.424-7.809 0-.319-.113-.593-.41-.844-.755-.64-.778-1.165-1.371-1.165-.433 0-.96 1.005-.411 1.895.183.297.343.48.343.754 0 .638-1.006 2.35-1.713 2.35-.708 0-1.255-1.755-1.255-4.588 0-2.513.57-5.047 1.278-5.047.205 0 .274.137.274.32 0 .297-.091.89-.091 1.895 0 1.073.25 1.165.457 1.165z" fill="#000"/><path d="M14.838 38.229c.96 0 1.758-.71 1.758-2.282v-2.33c0-.891.07-1.895.663-2.604-.069.297-.069.617-.069.914 0 1.964 1.096 3.312 1.096 5.206 0 .707-.206 1.096-.753 1.096-.525 0-.48-.48-.595-.48-.09 0-.227.297-.227.617 0 .48.342 1.233 1.3 1.233.823 0 1.484-.753 1.484-1.598 0-2.054-1.598-4.339-1.598-6.53 0-.96.251-1.598.457-2.102 0 4.545 3.859 7.856 3.859 9.75 0 .434-.32.778-.8.778a.746.746 0 01-.776-.733c0-.16-.023-.205-.091-.205-.136 0-.548.457-.548 1.052a1.71 1.71 0 001.758 1.667c1.3 0 2.009-1.097 2.009-2.08 0-2.396-4.681-6.027-4.681-9.908 0-.663.113-1.736.594-2.558-3.014 1.94-3.95 4.521-3.95 6.782 0 1.964-.068 2.944-1.073 2.944-.526 0-.662-.478-.846-.478-.136 0-.205.41-.205.524 0 .845.618 1.325 1.234 1.325zm34.595-25.711c.29-.195 1.577.113 3.241-.71.205-.112.411-.158.594-.158.8 0 .594.913 1.326.913.57 0 1.302-.48 1.737-.48.68 0 1.663 2.147 1.663 3.152 0 1.165-1.755 1.873-3.834 1.873-3.036 0-4.865-2.649-4.865-4.362.001-.137.07-.183.138-.228zm4.978 2.9c1.006 0 1.76-.457 1.76-.732 0-.09-.137-.159-.435-.159-.297 0-.891-.022-2.01-.205-.962-.16-1.692-.525-1.966-.525-.092 0-.138.045-.138.113 0 .595 1.098 1.508 2.79 1.508zM15.318 46.837c-.753.183-1.964 1.369-1.964 3.244 0 2.236 2.398 5.685 6.348 5.685 3.333 0 4.156-2.306 4.156-3.86 0-3.448-2.123-5.869-4.885-5.869-1.508 0-2.856 1.096-2.856 2.717 0 1.509 1.142 3.769 3.859 3.769 1.279 0 2.032-.915 2.032-1.963 0-1.028-.936-2.443-2.307-2.443-.41 0-.707.272-.707.707 0 .547.753 1.096 1.69 1.096.227 0 .41-.046.502-.092.045.07.069.184.069.275 0 .526-.503.846-1.28.846-1.164 0-2.283-.868-2.283-2.24 0-.82.709-1.414 1.736-1.414 2.032 0 3.241 1.803 3.241 3.608 0 1.62-.889 2.558-2.716 2.558-3.654 0-5.433-3.29-4.635-6.624zm26.066 13.379c1.095 0 1.038-.091 1.381-.091.342 0 .365.205.365.343 0 .502-1.12 1.119-3.106 1.119-1.164 0-1.873-.617-2.078-1.302-1.141.73-2.876 1.393-4.589 1.393-4.68 0-5.867-2.034-7.33-2.694-1.119-.503-2.831.48-5.23-2.192.32.069.755.091 1.098.091 2.1 0 3.218-1.026 3.218-2.671 0-.206-.023-.432-.046-.637.64.25 2.102 1.345 2.445 3.286.045.229.98.434 1.575.434.823 0 1.873-.343 2.032-1.69 2.74-.227 4.591-1.848 4.98-3.905.98.32 2.1 1.21 2.373 1.668.389-.136.844-.205 1.37-.205.73 0 1.553.137 2.534.434.046-.297.091-.662.549-.662.684 0 .502.753.73 1.185.115.229.687.365.687.823 0 .435-.368.595-.596.595a1.01 1.01 0 01-.275-.045c-.455.16-.48 3.446-2.397 3.446-1.414 0-2.716-1.165-3.288-2.625-.16-.434-.502-.708-.822-.708-.365 0-.57.069-1.003.548-1.233 1.346-3.289 2.51-5.823 2.51-.777 0-1.393-.07-1.554-.07-.092 0-.092.024-.092.046 0 .16.776.778 2.466.778 4.02 0 5.002-2.261 5.64-2.261.093 0 .365 0 .525.366.938 2.19 2.982 2.693 4.26 2.693zm-1.77-4.563c0 .502.41.914.914.914a.916.916 0 00.913-.914.916.916 0 00-.913-.915.917.917 0 00-.914.915zm18.083-11.396c-.32 0-.662.251-.662.869 0 .683.526 1.118.822 1.254.16.092.412.184.661.184.663 0 1.19-.184 1.19-.733-.001-.705-1.03-1.575-2.01-1.575zm-2.463 1.414c-.48 0-3.132 3.54-4.841 3.54-.41 0-.754-.776-.754-1.368 0-.32.205-.549.938-.71 3.926-.89 3.058-3.837 6.411-3.837 1.85 0 3.908 1.258 3.908 4.088 0 3.015-4.29 6.758-4.93 6.758-.526 0-1.097-.753-1.097-1.255 0-.16.069-.365.525-.548 2.19-.869 3.444-2.877 3.444-3.906 0-.229-.114-.455-.41-.455-.388 0-2.05 3.79-3.902 3.79-1.281 0-2.584-1.162-2.584-1.712 0-.914 3.703-2.602 3.703-3.883 0-.48-.228-.502-.411-.502zM10.043 15.738s-.661.501-1.483.501c-.981 0-1.758-.73-1.758-1.758 0-.708.365-1.438 1.21-1.804-.023.137-.023.25-.023.388 0 1.303.73 2.284 2.054 2.673zm4.887 4.384c-.502.593-1.028 1.598-1.028 2.625 0 1.233.755 2.26 1.92 2.26 1.117 0 1.643-.959 1.643-1.94 0-1.53-1.393-2.604-2.535-2.945zm-7.58.913a.49.49 0 00-.069.252c0 .205.229.433.433.433.183 0 .297-.045.388-.045.548 0 1.165.388 2.055.388.524 0 1.142-.16 1.918-.548 1.644-.823 2.284-2.854 2.284-3.197 0-.435-.349-.378-.64-.777-.292-.398-.18-.75-.365-.937-.106-.106-.433-.113-.846-.16a5.018 5.018 0 00-.502-.022c-.753 0-1.646.093-2.649.731-1.98 1.264-1.688 3.357-2.007 3.882zm5.366-2.832c.158.216.594.48.594.64 0 .319-.184.731-.549.731-.8 0-1.438-1.21-1.438-1.897 0-.433.252-.478.593-.478a.55.55 0 01.343.091c.205.115.205.57.457.913zm-2.102 2.787c-.753 0-1.575-.936-1.575-1.782 0-.456.342-1.028.593-1.028.092 0 .138.07.16.23.136 1.118.868 1.758 1.553 2.077.069.045.115.068.115.113 0 .16-.435.39-.846.39zm1.942-5.755a4.5 4.5 0 00.205-1.325c0-1.095-.504-2.762-2.056-2.762-.89 0-1.53.707-1.53 1.552 0 1.805 1.804 2.535 3.38 2.535zm-5.914 9.134c0 1.734.525 2.557 1.461 2.557.73 0 1.713-.526 2.876-1.53-.89.205-1.576.343-2.191.343-.822 0-1.461-.32-2.146-1.37zm.8-2.033c-.023.115-.023.229-.023.342 0 1.073.57 1.667 1.323 1.667.57 0 1.233-.342 1.825-1.096-.25.045-.547.068-.821.068-.844 0-1.757-.227-2.305-.981zm5.594-.32c-.527.137-1.622.777-1.622 1.918 0 .821.638 1.348 1.438 1.348.412 0 .708-.092.89-.229-.638-.616-.867-1.302-.867-1.986 0-.48.069-.776.16-1.05zm.82-6.256c0 .502.412.914.914.914a.917.917 0 00.914-.914.917.917 0 00-.914-.914.917.917 0 00-.913.914zm1.188 2.055c0 .503.412.914.915.914a.917.917 0 00.913-.914.916.916 0 00-.913-.913.917.917 0 00-.915.913zm35.624 11.211c0-.456.411-.844.863-.844.503 0 .891.388.891.844a.865.865 0 01-.891.891.872.872 0 01-.863-.89zm-8.017-7.032c0 .502.412.913.913.913a.917.917 0 00.915-.913.917.917 0 00-.915-.913.917.917 0 00-.913.913zm-.776 3.219c0 .708.593 1.3 1.302 1.3.707 0 1.302-.592 1.302-1.3 0-.707-.595-1.302-1.302-1.302-.71 0-1.301.595-1.301 1.302zm2.878-1.462c0 .778.617 1.393 1.389 1.393.776 0 1.395-.615 1.395-1.393 0-.776-.619-1.392-1.395-1.392-.772 0-1.389.616-1.389 1.392zm.115-2.968c0 .48.389.87.863.87a.868.868 0 000-1.737.866.866 0 00-.863.867zM49 18.593c0 .478.389.866.87.866a.868.868 0 10-.87-.867zM47.286 21.4c0 .798.662 1.46 1.462 1.46.8 0 1.463-.662 1.463-1.46 0-.8-.662-1.462-1.463-1.462-.8 0-1.462.661-1.462 1.462zm-2.35 5.342c0 .503.411.913.91.913.502 0 .915-.41.915-.913a.917.917 0 00-.915-.913c-.499 0-.91.41-.91.913zm2.99-1.827c0 .502.41.914.914.914a.917.917 0 00.914-.914.916.916 0 00-.913-.913.916.916 0 00-.915.913zm-.845 3.22a1.58 1.58 0 001.576 1.576 1.58 1.58 0 001.578-1.576 1.58 1.58 0 00-1.578-1.576 1.58 1.58 0 00-1.576 1.576zm3.29-1.942a1.072 1.072 0 101.07-1.073c-.59 0-1.07.48-1.07 1.073zm-.07-2.877c0 .526.436.96.956.96.526 0 .96-.434.96-.96a.965.965 0 00-.96-.958.964.964 0 00-.955.958zm2.327 29.961c-.594.457-1.983 1.483-4.292 1.483-1.233 0-1.782-.388-1.965-.388-.229 0-.48.228-.731.525-.543.64-1.252 1.828-1.252 3.128 0 .913.71 1.825 2.029 1.825 4.274 0 7.468-2.67 7.468-4.838 0-1.232-.73-1.735-1.257-1.735zm-1.188-.251c.185-.158.228-.41.228-.663v-.525c0-.663-1-1.05-2.372-1.05-1.668 0-2.56.752-2.56 1.073v1.05c0 .435 1.007.869 2.24.869.983 0 1.874-.251 2.464-.754zm-.184 2.26c.115 0 .251.068.251.48 0 .502-.227 1.163-1.046 1.688-.57.39-1.348.71-2.49.73.182-.546.32-1.119.32-1.664 0-.183-.022-.32-.046-.526h.297c1.806 0 2.583-.708 2.714-.708zm-8.72-27.903c.252 1.94 2.857.959 2.857 3.31 0 .343-.091.846-.091 1.28 0 .502.044.935.43.935.387 0 .479-.273.479-.639s-.092-.822-.092-1.073c0-.8.572-.982.916-.982.868 0 1.53.89 2.833.89-.298 1.462-3.314 1.074-3.314 2.673 0 .8.8.98 1.326.98.48 0 .64-.068.64-.478 0-.229-.046-.48-.046-.64a.18.18 0 01.183-.183c.504 0 2.966 1.873 2.966 2.444 0 .525-2.6 1.05-3.354 1.05-.23 0-.275-.16-.275-.251 0-.16.388-.64.388-.913 0-.206-.342-.343-1.257-.343-.434 0-.754.046-.754.39 0 .614 1.005 1.369 1.005 1.938 0 .458-.274.732-1.005.732-.617 0-1.55-.48-1.55-1.28 0-.639.659-1.276.659-1.666 0-.114-.088-.297-.362-.297-.846 0-1.074 2.237-4.067 2.489.48-.434.89-.913.89-1.894 0-.48-.113-.869-.113-1.393 0-.685.319-1.028.775-1.028.845 0 1.256 1.186 1.806 1.186.298 0 .617-.272.617-.684 0-1.735-3.335-1.484-3.335-3.927.001-.663.228-1.485.845-2.626zm10.892 6.69c0 .57.184 1.233.755 1.233.48 0 .89-.73.89-1.53 0-.913-.16-1.621-.16-1.987 0-.16.07-.228.16-.228.343.023.663.96 1.03.96.41 0 1.024-.755 1.274-.755.069 0 .091.092.091.114 0 .343-.525 1.098-.525 1.394 0 .25 1.325.296 1.325.525 0 .343-1.39.343-2.051.64-.64.273-1.03.616-1.03 1.073 0 .457.457.547 1.097.547 1.526 0 2.6-.82 2.942-.82.069 0 .114.044.114.113 0 .229-.776.982-.776 1.325 0 .387 1.417.843 1.394 1.072-.023.068-.115.09-.274.09-.253 0-.64-.068-.938-.068-.183 0-.343.023-.412.114-.159.183.046 1.394-.272 1.394-.298 0-1.075-2.695-2.83-2.695-.25 0-.434.206-.434.549 0 .912.892 1.962 1.737 2.465.383.252 1.024.503 1.024.64 0 .273-1.458.023-1.458.48 0 .41.183 1.028.183 1.392 0 .115-.023.25-.16.25-.274 0-.938-1.254-1.257-1.254-.274 0-.868.753-1.12.753-.068 0-.114-.069-.114-.136 0-.526.846-1.713.846-2.878 0-.548-.069-1.736-.732-1.736-.548 0-1.166.868-1.44 1.736-.159.502-.045 2.443-.411 2.443-.343 0-.251-1.3-.71-1.3-.336 0-1.068.615-1.32.615-.045 0-.091-.023-.091-.069 0-.273.663-1.164.663-1.347 0-.342-1.508-.387-1.508-.661 0-.16.594-.274 1.142-.366 1.161-.206 2.875-1.05 2.875-2.237 0-1.324-1.28-1.896-2.12-2.444-.435-.274-.915-.501-.915-.684 0-.184.548-.184.777-.184.342 0 .681-.022.681-.296 0-.206-.046-.616-.046-.936 0-.229.022-.412.115-.412.343 0 .822 1.119 1.052 1.119.364 0 .867-.914 1.21-.914.114 0 .16.07.16.274.002.845-.433 1.804-.433 2.628z" fill="#000"/><path d="M43.2 40.397c1.05.137 1.302.502 1.302.8 0 .503-.457.661-.892.661-.319 0-.685-.068-1.073-.068-.504 0-1.005.115-1.416.594.297.046.731.252.731.71 0 1.323-3.676.226-3.676 3.63 0 1.803 1.873 3.768 4.703 3.768 1.464 0 2.4-.48 2.4-1.03 0-.432-.776-.137-.776-.502 0-.16.274-.457.274-.71 0-.11-.091-.317-.274-.317-.413 0-1.19.66-2.765.66-1.234 0-2.444-.705-2.444-1.665 0-.205.092-.32.229-.32s.319.092.48.092c.137 0 .159-.092.159-.343s0-.96.433-.96c.435 0 1.257 1.599 4.41 1.599 1.047 0 3.08-.204 3.835-.89-.023 2.512-1.99 5.822-6.098 5.822-4.27 0-6.553-3.425-6.553-6.577 0-3.492 2.853-6.666 6.76-6.666 1.003 0 1.85.342 1.85.776 0 .595-1.486.23-1.6.936zm7.01 1.212c.16.25.229.501.229.73 0 .64-.434 1.233-.434 1.896 0 .753.571 1.368 1.435 1.368.937 0 1.577-.751 1.577-1.643 0-1.21-1.097-2.237-2.807-2.351zm-7.56 1.46a.92.92 0 01.297.685c0 .343-.16.709-.16 1.097 0 .546.412 1.027 1.005 1.027.64 0 1.076-.504 1.076-1.095 0-.868-.894-1.713-2.218-1.713zm3.036-3.882c2.399.457 3.702 2.262 3.702 3.952 0 1.165-.731 2.236-2.011 2.236-1.166 0-2.007-.798-2.007-2.077 0-.959.749-1.964.749-2.946 0-.388-.114-.776-.433-1.165zm1.188 3.038c0 .319.228.57.549.57.364 0 .594-.32.594-.685 0-.479-.435-1.141-.846-1.141-.184 0-.114.274-.16.57-.024.228-.137.502-.137.686zM21.667 18.729c.776 0 1.666-4.202 1.666-4.91 0-.183-.068-.32-.228-.32-.708 0-1.69 3.996-1.69 4.888 0 .16.046.342.252.342zm5.594 1.256c.57 0 1.21-2.193 1.21-3.563 0-.297-.046-.616-.184-.616-.48 0-1.279 2.26-1.279 3.493 0 .48.116.686.253.686zm-3.724-2.033c.251 0 .571-.275 1.166-.936.045-.297.045-.571.045-.914 0-.456-.183-.958-.456-.958-.686 0-1.028 1.827-1.028 2.307.001.273.137.501.273.501zm3.13-.936c0-.389-.093-.48-.183-.48-.23 0-.48.275-.845.891.046.822.183 1.188.41 1.188.252 0 .617-.8.617-1.598zm1.758-2.694c1.507 0 2.191 1.301 2.191 2.763 0 .639-.181 1.576-.478 1.576s-.251-.526-.297-1.006c-.045-.616-.16-.753-.366-.753-.389 0-.639.913-.639 1.759 0 .524.091 1.118.502 1.118a.832.832 0 00.571-.251c-.091 1.05-.868 1.964-1.964 1.964-2.01 0-2.763-2.352-2.99-3.723-1.21 1.28-2.33 2.216-4.34 2.216-1.871 0-2.716-1.37-2.716-2.671 0-.39.137-1.394.617-1.394.57 0 .068 1.872 1.187 1.872.274 0 .775-.229 1.05-.981.16-.458.252-.936.252-1.348 0-.617-.137-1.004-.594-1.004-.389 0-.869.296-1.028.456.548-1.644 1.873-2.489 3.332-2.489 1.806 0 2.764 1.598 2.764 3.38 0 .25-.023.524-.07.776.778-1.279 1.852-2.26 3.016-2.26z" fill="#000"/><path d="M24.155 20.463c-.982 0-1.027 1.19-1.027 3.585-.731-1.575-1.94-3.265-3.357-3.265-.958 0-1.323.64-1.323 1.758 0 .229.022.572.068.776.115-.387.48-.547.936-.547.983 0 2.17.753 2.946 1.781-.89-.16-1.758-.32-2.488-.32-.457 0-.868.046-1.21.206-.663.296-1.553 1.279-1.553 2.763 0 .229.023.48.069.753.8-1.781 2.922-2.58 4.292-2.58.275 0 .48.022.64.046-.709.638-.868 1.757-.914 2.511-.022.365-.16.39-.412.39 0 .752.595 1.871.595 2.442 0 .205-.114.388-.228.434 0 1.005 1.003 1.735 1.003 2.374 0 .16-.044.297-.114.366.07.412 1.174 1.103 1.317 1.45.176.42.373.491.488.491.388 0 1.003-.457 1.003-.868 0-.137-.114-.297-.204-.366-.435-.318-.663-1.004-.846-1.46-.16 0-.367-.067-.44-.337-.124-.472-.13-1.353-.313-1.879-.297-.068-.435-.182-.435-.799 0-.297.184-1.462.184-1.873-.137 0-.32-.092-.32-.366 0-.73.732-1.3.936-2.236 1.302.958 1.62 1.94 1.62 2.808 0 .455-.068.89-.16 1.302.96-.48 2.399-1.188 2.399-2.627 0-.845-.389-1.781-2.97-2.146.8-.298 1.805-.457 2.65-.457 1.462 0 2.306.456 2.488 1.483.297-.456.526-.981.526-1.46 0-1.12-.937-1.85-2.124-1.85-1.393 0-2.626.73-3.95 1.622.595-1.233 1.003-1.964 1.736-1.964.113 0 .228.023.342.046-.274-1.004-1.301-1.987-1.85-1.987zm38.472 16.464c1.143 0 2.057 1.484 2.057 3.22 0 1.849-.869 3.86-2.418 5.228-.023-3.082-3.795-2.1-3.795-4.337 0-.959.687-1.599 1.51-1.599.731 0 1.302.206 1.714.618a2.026 2.026 0 01-.617-1.462c0-.87.548-1.668 1.549-1.668zM42.24 15.235c.594.571 1.118.821 1.758.821.252 0 .55-.067.71-.067.206 0 .342.09.342.25 0 .252-.229.663-.502.892.273.113.571.16.891.16 1.297 0 2.782-.823 2.782-2.877.276.364.435 1.118.435 1.461 0 2.489-1.829 3.447-3.515 3.447-1.096 0-1.646-.366-1.784-.366-.433 0-.41.87-.707.846-.526-.091-1.004-1.256-1.004-2.488 0-.732.183-1.508.593-2.079zm3.446-1.667c-.183-.297-.865-.456-1.183-.456-1.007 0-1.693.707-1.83 1.347a2.142 2.142 0 01-.159-.777c0-1.005.685-2.237 2.355-2.237 1.457 0 2.028.776 2.234.776.228 0 .457-.229.64-.229.252 0 .252.388.252.663 0 .913-.412 2.489-1.44 3.06a2.329 2.329 0 00-1.139-1.096.36.36 0 01-.228-.343c0-.252.227-.572.498-.708zM26.37 8.59c0 .8 2.854 4.704 3.402 4.704.458 0 .8-.8.8-1.485a.935.935 0 00-.137-.502c-.411-.57-3.31-2.854-3.951-2.854-.069 0-.114.069-.114.137zM9.586 6.238c0 .458-1.734 1.987-2.35 1.987-.228 0-.298-.274-.298-.525 0-.456.206-1.096.458-1.302.295-.274.98-.41 1.506-.41.32 0 .684.067.684.25zm20.85 1.325c0-1.37-3.705-3.86-3.746-4.932-.005-.098.05-.196.132-.283.635-.67 3.27-1.157 3.27-1.728 0-.295-.55-.295-.823-.295-2.123 0-5.229.776-5.229 1.529 0 .777 2.786 2.672 2.786 3.609 0 .25-.16.342-.412.342-.775 0-2.465-.937-3.264-.937-.366 0-.504.251-.504.618 0 1.095 1.302 3.173 1.302 3.788 0 .07-.023.16-.114.16-.412 0-2.35-2.282-3.037-2.282-.25 0-.274.342-.274.845v.776c0 .525-.023.845-.273.845-.595 0-.868-1.667-1.439-1.667-.594 0-.708 2.968-1.278 2.968-.663 0-.092-3.265-.731-3.265-.708 0-1.508 2.17-2.01 2.17-.182 0-.228-.184-.228-.344 0-.661.387-1.734.387-2.373 0-.32-.091-.503-.364-.503-.709 0-2.261 1.142-2.854 1.142-.092 0-.206-.046-.206-.138 0-.546 2.489-2.283 2.489-3.059 0-.754-3.427-.25-3.427-1.12 0-.73 2.445-1.483 2.445-2.237 0-.662-2.9-.958-4.019-.958-1.347 0-2.077.158-2.077.547 0 .594 3.06.777 3.06 1.301 0 .503-3.175 1.85-3.175 2.626 0 .686 4.475.046 4.475.755 0 .775-3.903 4.131-3.903 5.25 0 .252.183.366.433.366 1.187 0 4.269-2.26 5.114-2.26.297 0 .32.364.32.684 0 .595-.205 1.507-.205 2.17 0 .525.137.89.593.89.847 0 1.621-1.438 2.194-1.438.73 0 .296 4.224 1.392 4.224.936 0 1.324-4.567 1.918-4.567.594 0 1.074 1.324 1.622 1.324.683 0 .364-2.306 1.096-2.306.798 0 3.081 2.74 4.11 2.74.319 0 .432-.251.432-.571 0-1.21-1.689-3.95-1.689-4.817 0-.228.068-.297.32-.297.89 0 3.494 1.233 4.726 1.233.414 0 .664-.228.664-.525zM28.06 3.042c0 .41 1.438 1.302 2.101 1.302.388 0 .502-.526.502-1.074 0-.685-.295-.708-.89-.708-.754 0-1.713.206-1.713.48zM22.694.712c0-.137-.685-.274-1.62-.274-1.485 0-1.28 1.234-2.421 1.234-1.187 0-.892-1.28-2.399-1.28-.913 0-1.757.16-1.757.366 0 .274 1.073.16 1.073.914 0 .799-2.307 1.028-2.307 1.507 0 .16.182.228.41.228.504 0 1.302-.228 1.874-.228.32 0 .617.068.617.365 0 .571-1.234 1.599-1.234 2.055 0 .138.113.184.228.184.457 0 1.234-1.165 1.964-1.165 1.21 0 .412 2.58 1.073 2.58.685 0 .388-2.536 1.37-2.536.8 0 1.393 1.759 1.941 1.759.138 0 .251-.114.251-.274 0-.479-.684-1.462-.684-2.1 0-.389.273-.572.639-.572.524 0 1.233.32 1.62.32.136 0 .274-.045.274-.205 0-.548-2.03-1.141-2.03-1.85 0-.708 1.118-.708 1.118-1.028zm40.481 3.701c0 2.03-1.48 3.584-4.155 4.017.298.023.572.023.847.023 3.126 0 4.269-1.415 4.269-2.602 0-.663-.366-1.256-.96-1.438zm-3.857 2.305c0-1.621-3.879-2.033-3.879-2.397 0-.297 2.166-.8 3.285-.823-1.713-2.192-4.153-1.963-4.153-2.351 0-.229 1.828-.686 3.515-.686 1.415 0 2.74.32 2.74 1.393 0 .595-.48 1.212-.48 2.124 0 .502.25.936.915.936.71 0 .868-.753.868-1.553 0-.661-.114-1.164-.114-1.484 0-.959.657-1.598 1.595-1.598.776 0 .96.341 2.103.341-.618.367-.846 1.03-.846 1.348 0 .96.618 1.622.618 3.586 0 3.606-3.379 4.885-7.514 4.885-1.136 0-2.349-.091-3.537-.273-.182-.023-.228-.068-.228-.183 0-.297 1.623-.457 1.623-1.917 0-.572-.184-1.12-.184-1.324a.18.18 0 01.184-.184c.342 0 1.029 1.324 2.304 1.324.338 0 1.185-.114 1.185-1.164zm3.72-5.045c0 .318.252.57.572.57.32 0 .571-.252.571-.57a.566.566 0 00-.571-.572.566.566 0 00-.572.572zM61.01 22.77c0-.48-1.212-.525-1.326-1.873-.023-.204-.092-.57-.343-.57-.411 0-.092 1.257-.549 1.257-1.05 0-1.392-2.056-1.78-2.056-.092 0-.201.068-.201.342 0 .252.046.412.046.707 0 .298-.07.504-.343.504-.617 0-1.166-1.44-1.692-1.44-.114 0-.228.07-.228.184 0 .274.456.775.456 1.027 0 .549-1.485.251-1.485.709 0 .205.205.273.48.273.48 0 1.235-.204 1.623-.204.229 0 .571.045.571.34 0 .32-.823.731-.823 1.028 0 .138.137.205.251.205.617 0 1.71-1.072 2.486-1.072.137 0 .48.068.48.274 0 .296-.777.82-.777 1.255 0 .114.07.251.206.251.409 0 .958-1.072 1.735-1.072.297 0 .732.114.961.114.183 0 .252-.114.252-.183zm.594 11.074c.366-1.14.823-1.94 1.572-3.174-.749-.387-2.738-1.21-2.738-2.557 0-1.576 1.964-2.809 2.371-2.809.184 0 .23.16.23.458 0 .82-.39 2.145-.39 2.854 0 .638.412 1.256.777 1.256.389 0 1.463-1.37 1.463-2.718 0-2.42-2.126-3.15-2.783-3.15-.617 0-1.737 1.003-4.364 1.003-4.908 0-6.028-4.862-6.028-6.987 0-.09.022-.114.044-.114.115 0 .596.595 2.149.595.8 0 1.531-.206 2.697-.206 2.735 0 3.947 1.896 5.639 4.315 1.022.639 3.468 1.667 3.468 4.567 0 2.558-2.719 3.973-3.377 6.713 1.046-.113 1.664-1.987 2.737-1.987.55 0 .8.434.8 1.12 0 1.004-.572 2.512-1.668 3.448.022-.091.022-.207.022-.343 0-.639-.25-1.552-.983-1.552-1.137 0-1.503 1.233-2.142 2.26-.663-2.329-1.555-4.43-3.153-5.709-1.617-1.301-4.406-.594-4.406-2.968 0-.64.413-1.553.413-2.284 0-.25-.047-.48-.185-.662 2.195.823 1.417 2.283 2.767 3.79.84.96 3.17 1.873 4.518 5.823.023-.114.046-.41.046-.616 0-3.38-4.474-6.691-4.862-8.062 2.598.298 3.055.938 4.29 4.363.252.708 1.076 2.466 1.076 3.333z" fill="#000"/><path d="M49.114 9.686c-1.6 0-2.651-.798-2.651-1.21 0-.206.136-.342.32-.342.502 0 1.6.775 1.964.775.093 0 .16-.044.16-.182 0-.41-.388-1.096-.388-1.437 0-.092.069-.16.206-.16.616 0 1.53.251 2.011.251.16 0 .205-.091.205-.183 0-.502-1.486-1.484-1.486-1.781 0-.274 1.847-.686 1.847-1.119 0-.457-2.51-.137-2.51-.571 0-.32.48-.868.48-1.119 0-.114-.092-.16-.251-.16-.206 0-1.303.434-1.76.434-.228 0-.503-.045-.503-.366 0-.525.891-1.095 2.286-1.095 2.257 0 3.606 1.553 3.606 4.155.002 3.289-2.302 4.11-3.536 4.11zm-4.452-4.338c0-.251-.892-.73-.892-1.004 0-.046.044-.069.113-.069.253 0 .687.092 1.031.092.297 0 .342-1.279.567-1.279.16 0 .433 1.21.686 1.21.296 0 .844-.343 1.073-.343.045 0 .091.023.091.07 0 .16-.57.775-.57.957 0 .206 1.28.458 1.28.64 0 .23-1.304.206-1.304.412 0 .158.48.798.48 1.004 0 .046-.023.069-.068.069-.184 0-.891-.32-1.097-.32-.252 0-.658.936-.864.936-.068 0-.114-.092-.114-.206l-.046-.913c0-.091-.044-.183-.16-.183-.274 0-.8-.023-.96-.023-.115 0-.16-.022-.16-.068-.001-.183.914-.822.914-.982zm-.664 3.743c.367 0 .435.892.505 1.417.045.274.09.297.205.297.275 0 .708-1.05 1.002-1.05.433 0 1.6 1.21 3.541 1.21 2.761 0 5.366-1.942 5.366-5.365 0-3.312-2.332-5.253-5.55-5.253-1.53 0-2.65.754-3.245.754-.36.023-.908-.89-1.183-.89-.114 0-.228.227-.228.616 0 .251 0 1.05-.275 1.05-.55 0-2.672-1.575-2.672-1.005 0 .526 1.414 2.125 1.414 2.535 0 .411-1.392.8-1.392 1.073 0 .502 1.484.594 1.484 1.234 0 .639-1.553 1.141-1.553 1.621 0 .388 1.553.114 1.553.593 0 .48-1.141 2.078-1.141 2.533 0 .116.022.116.112.116.435 0 1.737-1.486 2.057-1.486zM33.654 49.189c0 .206-.069.434-.251.662-.25-.456-.959-.685-1.28-.684-2.35 0-1.46 3.402-3.972 3.402-1.05 0-1.142-.137-1.53-.137-.16 0-.25.069-.25.206 0 .594.844 2.055 3.196 2.055 2.352 0 4.613-1.438 4.613-3.221a2.37 2.37 0 00-.206-.934c.092-.138.321-.23.526-.23.365 0 .57.413.913.413.366 0 .64-.275.64-.64 0-.298-.16-.502-.433-.641a.786.786 0 00.32-.616c0-.39-.275-.753-.733-.753-.206 0-.341.07-.501.226-.045-.408-.274-.797-.709-.797-.342 0-.594.25-.594.64 0 .363.251.661.251 1.049z" fill="#000"/><path d="M21.141 44.943c1.827.454 2.74 1.437 2.923 2.602.182 1.118.41 2.033.844 2.488.571.641 1.69 1.209 2.672 1.209.823 0 1.484-.271 1.484-1.026 0-.823-1.119-2.672-2.763-2.672-.16 0-.365.024-.594.024-.206 0-.503-.045-.685-.206-.364-.32-.48-2.033-1.164-3.06-.753-1.142-1.575-1.462-2.694-1.462-.798 0-1.69.433-1.69 1.073 0 .39.206.664 1.667 1.03zm6.371 5.114c-.686 0-1.713-.732-1.713-1.144 0-.342.32-.525.57-.525.571 0 1.598.71 1.598 1.303 0 .16-.114.366-.455.366z" fill="#000"/><path d="M25.41 32.27c0-1.462 3.472-2.238 3.472-4.043 0-.297-.114-.821-.32-1.21 1.209.662 2.1 1.782 2.1 2.695 0 1.575-1.643 2.306-1.643 3.289 0 1.141 1.758 1.324 1.758 2.74 0 1.163-1.668 2.51-1.668 4.017 0 1.165.823 2.123 2.077 2.283-.41.092-.775.16-1.163.16-2.308 0-4.682-1.895-4.682-4.156 0-1.118.48-2.099 1.21-2.807.64.548 1.279.913 1.69.913.365 0 .526-.182.526-.456 0-.846-3.357-1.621-3.357-3.426zm7.285 11.53c-.783.359-1.096.297-1.096 1.097 0 .297-.069.683-.069.89 0 .273.046.434.365.434.823 0 2.125-1.393 2.125-2.58 0-.322-.184-.456-.39-.456-.182 0-.387.364-.935.615zm-.092-1.644c0-1.027-2.123-1.05-2.123-2.603 0-.39.25-1.05.753-1.76.207 1.188.684 1.805 1.713 2.194 2.032.752 2.306 1.894 2.306 3.106 0 2.055-1.438 4.612-5.137 4.612-2.97 0-5.093-2.65-5.093-4.887 0-.617.16-1.301.548-1.301.343 0 .457.273.73.547 1.03 1.029 2.148 1.301 3.769 1.301 1.461.001 2.534-.592 2.534-1.21zm-16.17.494a.868.868 0 11-1.725.201.87.87 0 111.725-.2zm-4.267.899c.097.78.824 1.37 1.645 1.28.296-.034.571-.114.754-.229.183.73.796 1.2 1.624 1.091.841-.11 1.413-.772 1.322-1.617a1.652 1.652 0 00-.136-.525s.11-.012.194-.027c.825-.157 1.38-.818 1.312-1.617-.09-.822-.829-1.433-1.596-1.338-.298.036-.573.15-.756.31-.206-.684-.85-1.279-1.729-1.134-.794.132-1.319.805-1.24 1.66.014.138.046.297.115.456l-.227.033c-.667.099-1.39.77-1.282 1.657z" fill="#000"/></svg>